<svg width="79" height="88" viewBox="0 0 79 88" fill="none" xmlns="http://www.w3.org/2000/svg">
<path d="M26.688 0.863995C14.4 0.863995 8.256 6.144 8.256 14.016C8.256 33.12 53.376 23.232 53.376 51.168C53.376 60.384 45.216 68.928 28.608 68.928C14.88 68.928 5.28 62.4 0 53.28L6.048 54.624C10.56 63.168 17.28 67.968 28.608 67.968C44.928 67.968 48 60 48 52.704C48 28.8 2.88 41.088 2.88 14.688C2.88 8.544 8.448 0 24.48 0C38.784 0 49.232 10.744 54.128 19.864H46.832C42.704 11.32 37.056 0.863995 26.688 0.863995Z" fill="white"/>
<path d="M75.824 83.896C76.208 85.144 77.456 86.008 78.8 86.008V86.968H68.72V86.008C69.584 86.008 70.16 85.24 69.872 84.472L63.248 64.888C43.856 65.08 38.864 87.928 28.976 87.928C16.112 87.928 43.664 35.896 48.464 23.032C48.4443 22.968 47.4443 20.968 47.4443 20.968L46.832 19.864H54.128L75.824 83.896ZM30.608 82.264C39.824 82.264 44.048 64.984 63.152 64.504L49.328 24.088C44.432 38.392 19.856 82.264 30.608 82.264Z" fill="white"/>
</svg>
