<svg width="163" height="163" viewBox="0 0 163 163" fill="none" xmlns="http://www.w3.org/2000/svg">
<circle cx="81.5" cy="81.5" r="81.5" fill="#FDF9EA"/>
<path fill-rule="evenodd" clip-rule="evenodd" d="M74.9132 88.2582C80.1934 92.9232 84.288 97.9823 84.288 104.936C84.4538 112.979 79.2478 118.229 71.392 119.696V119.336C66.304 119.336 60.64 118.28 61.696 115.016L69.664 90.92C70.3434 88.8062 71.7353 88.3547 74.9132 88.2582ZM82.8502 88.232C87.052 92.5809 89.9967 97.6595 89.76 104.552C89.856 114.344 81.024 121.256 67.488 120.584C63.8173 120.466 60.8404 120.238 57.9267 119.72H51.04V119.336C52.3444 119.336 53.5856 119.229 54.725 119.027C53.9698 118.834 53.2036 118.618 52.416 118.376L48 103.112H48.096C48.6039 103.917 49.1263 104.798 49.6737 105.72C52.0556 109.735 54.913 114.552 59.1296 117.467C60.1236 116.84 60.8194 116.077 61.12 115.208L71.0631 85.0403C70.3967 84.5046 69.7234 83.9695 69.0478 83.4325C60.6932 76.7929 51.9892 69.8755 51.84 58.088C51.744 48.872 57.792 41 71.328 41C72.4529 41 73.5713 41.0846 74.656 41.2098V41H86.848L111.328 115.208C112.192 117.704 116.32 119.336 121.408 119.336V119.72H96.544V119.336C101.632 119.336 107.296 118.28 106.24 115.016L97.408 88.232H82.8502ZM76.0839 41.3974C76.8378 41.507 77.5681 41.6274 78.2648 41.7422C78.7201 41.8173 79.161 41.89 79.5847 41.9558C78.6057 41.5524 77.4834 41.432 76.0839 41.3974ZM82.1809 44.148C79.4096 42.5414 75.8199 41.48 71.328 41.48C61.344 41.768 57.12 48.968 57.312 57.704C57.5402 67.7895 65.0575 73.8182 72.7998 79.7709L83.68 46.76C83.1653 45.6911 82.6752 44.8345 82.1809 44.148ZM73.2027 80.0804L83.968 47.528L97.216 87.752H82.3785C79.697 85.0681 76.5527 82.6533 73.4147 80.2432C73.344 80.189 73.2733 80.1347 73.2027 80.0804ZM74.2084 87.6436C73.3519 86.9059 72.4686 86.1765 71.5702 85.4494C71.464 86.8631 72.3364 87.4342 74.2084 87.6436ZM64.1176 119.72C65.1721 119.969 66.2933 120.104 67.488 120.104C68.8008 120.066 70.0621 119.937 71.2624 119.72H64.1176Z" fill="#1A0A02"/>
</svg>
